<svg id="Layer_1" data-name="Layer 1" xmlns="http://www.w3.org/2000/svg" viewBox="0 0 40 80"><defs><style>.cls-1{fill:#fff;}</style></defs><title>action-favorite</title><path class="cls-1" d="M26.64,14a5.48,5.48,0,0,0-2-.32,4.32,4.32,0,0,0-4,2l-.64,1-.64-1a4.32,4.32,0,0,0-4-2,5.48,5.48,0,0,0-2,.32,3.69,3.69,0,0,0-1.5.86,4.37,4.37,0,0,0-1.31,3.37,6,6,0,0,0,.4,2.09,6.6,6.6,0,0,0,1.28,2.22,17.34,17.34,0,0,0,1.86,2,22.78,22.78,0,0,0,2.55,1.87A14.92,14.92,0,0,0,20,28.15a14.92,14.92,0,0,0,3.36-1.77,22.78,22.78,0,0,0,2.55-1.87,17.34,17.34,0,0,0,1.86-2,6.6,6.6,0,0,0,1.28-2.22,6,6,0,0,0,.4-2.09,4.37,4.37,0,0,0-1.31-3.37A3.69,3.69,0,0,0,26.64,14Z"/><path class="cls-1" d="M0,0V80H40V0ZM28.32,62.55a19.35,19.35,0,0,1-4.55,4,18.66,18.66,0,0,1-2,1.21,13.15,13.15,0,0,1-1.37.61l-.36.14a14.6,14.6,0,0,1-3.77-2,19.35,19.35,0,0,1-4.55-4,7.44,7.44,0,0,1-1.86-4.77,5,5,0,0,1,1.54-3.87,5.64,5.64,0,0,1,4-1.4,6.08,6.08,0,0,1,2.7.63,4.63,4.63,0,0,1,2,1.77,4.63,4.63,0,0,1,2-1.77,6.08,6.08,0,0,1,2.7-.63,5.64,5.64,0,0,1,4,1.4,5,5,0,0,1,1.54,3.87A7.44,7.44,0,0,1,28.32,62.55Zm0-39.58a19.58,19.58,0,0,1-4.55,4,20.2,20.2,0,0,1-2,1.2,11.8,11.8,0,0,1-1.37.62l-.36.13a14.17,14.17,0,0,1-3.77-2,19.58,19.58,0,0,1-4.55-4A7.46,7.46,0,0,1,9.82,18.2a5,5,0,0,1,1.54-3.87,5.65,5.65,0,0,1,4-1.41,6,6,0,0,1,2.7.64,4.51,4.51,0,0,1,2,1.77,4.51,4.51,0,0,1,2-1.77,6,6,0,0,1,2.7-.64,5.65,5.65,0,0,1,4,1.41,5,5,0,0,1,1.54,3.87A7.46,7.46,0,0,1,28.32,23Z"/></svg>