<svg id="Layer_1" data-name="Layer 1" xmlns="http://www.w3.org/2000/svg" viewBox="0 0 40 80"><defs><style>.cls-1{fill:#fff;}</style></defs><title>action-reply</title><polygon class="cls-1" points="17.45 27.36 23.72 27.36 25.78 29.43 25.78 27.36 27.36 27.36 27.36 20 17.45 20 17.45 27.36"/><polygon class="cls-1" points="12.64 62.14 16.81 62.14 16.81 58.94 22.55 58.94 22.55 54.77 12.64 54.77 12.64 62.14"/><polygon class="cls-1" points="22.55 15.19 12.64 15.19 12.64 22.55 16.81 22.55 16.81 19.36 22.55 19.36 22.55 15.19"/><path class="cls-1" d="M40,0H0V80H40ZM12,14.55H23.19v4.81H28V28H26.42v2.55H26L23.46,28H16.81V23.19H12Zm16,53H26.42v2.56H26l-2.55-2.56H16.81V62.77H12V54.14H23.19v4.8H28Z"/></svg>