<svg id="Layer_1" data-name="Layer 1" xmlns="http://www.w3.org/2000/svg" viewBox="0 0 40 80"><defs><style>.cls-1{fill:#fff;}</style></defs><title>action-boost</title><path class="cls-1" d="M0,0V80H40V0ZM26.78,23.13V18h.65v5.81H13.17l2.69,2.69-.45.45-3.49-3.49L15.41,20l.45.45-2.73,2.73Zm.65,40.23H13.17l2.69,2.69-.45.46L11.92,63l3.49-3.49.45.45-2.73,2.73H26.78V57.56h.65Zm-2.85-5.88L24.13,57l2.73-2.73H13.21v5.19h-.65V53.65H26.82L24.13,51l.45-.45L28.07,54Zm0-39.58-.45-.46,2.73-2.73H13.21v5.2h-.65V14.07H26.82l-2.69-2.69.45-.46,3.49,3.49Z"/></svg>