<svg id="Layer_1" data-name="Layer 1" xmlns="http://www.w3.org/2000/svg" viewBox="0 0 40 80"><defs><style>.cls-1{fill:#fff;}</style></defs><title>action-share-android</title><path class="cls-1" d="M21.48,29.82a2,2,0,0,0,.57.4,1.9,1.9,0,0,0,1.43,0,1.87,1.87,0,0,0,.59-.4,1.76,1.76,0,0,0,.4-.59,1.9,1.9,0,0,0,.14-.7,2,2,0,0,0-.14-.74,1.91,1.91,0,0,0-.4-.6,1.69,1.69,0,0,0-.59-.39,1.74,1.74,0,0,0-.71-.15,1.72,1.72,0,0,0-.72.15,1.81,1.81,0,0,0-.57.39,1.91,1.91,0,0,0-.4.6,1.81,1.81,0,0,0-.14.74,1.72,1.72,0,0,0,.14.7A1.76,1.76,0,0,0,21.48,29.82Z"/><path class="cls-1" d="M15.46,21.07a1.94,1.94,0,0,0-.58-.4,1.65,1.65,0,0,0-.72-.14,1.71,1.71,0,0,0-.72.14,2.07,2.07,0,0,0-.58.4,2,2,0,0,0-.39.57,1.72,1.72,0,0,0-.15.72,1.66,1.66,0,0,0,.15.72,1.91,1.91,0,0,0,.39.58,2.07,2.07,0,0,0,.58.4,1.89,1.89,0,0,0,.72.14,1.81,1.81,0,0,0,.72-.14,2,2,0,0,0,1-1,1.81,1.81,0,0,0,.14-.72,1.89,1.89,0,0,0-.14-.72A2,2,0,0,0,15.46,21.07Z"/><path class="cls-1" d="M27.14,16.13a2.07,2.07,0,0,0-.58-.4,1.89,1.89,0,0,0-.72-.14,1.81,1.81,0,0,0-.72.14,1.94,1.94,0,0,0-.58.4,2,2,0,0,0-.4.59,2,2,0,0,0-.14.71,2,2,0,0,0,.14.74,2,2,0,0,0,.4.59,1.94,1.94,0,0,0,.58.4,1.81,1.81,0,0,0,.72.14,1.89,1.89,0,0,0,.72-.14,2.07,2.07,0,0,0,.58-.4,2,2,0,0,0,.39-.59,1.85,1.85,0,0,0,.15-.74,1.78,1.78,0,0,0-.15-.71A2,2,0,0,0,27.14,16.13Z"/><path class="cls-1" d="M0,0V80H40V0ZM28.11,58a2.46,2.46,0,0,1-.54.8,2.66,2.66,0,0,1-.78.52,2.38,2.38,0,0,1-.95.2,2.43,2.43,0,0,1-.65-.09,1.82,1.82,0,0,1-.58-.27,2.06,2.06,0,0,1-.5-.36,2.91,2.91,0,0,1-.4-.51l-7.17,3a2.68,2.68,0,0,1,.05.3,2,2,0,0,1,0,.35,1.62,1.62,0,0,1,0,.3,2.87,2.87,0,0,1-.05.31,1.61,1.61,0,0,1-.09.29c0,.09-.08.19-.13.29l4.62,3.31a4.17,4.17,0,0,1,.38-.34,1.68,1.68,0,0,1,.45-.27,1.79,1.79,0,0,1,.46-.16,2.35,2.35,0,0,1,.54-.06,2.39,2.39,0,0,1,1,.2,2.49,2.49,0,0,1,.77.52,3,3,0,0,1,.53.8,2.3,2.3,0,0,1,.2,1,2.34,2.34,0,0,1-.2,1,2.48,2.48,0,0,1-1.3,1.3,2.38,2.38,0,0,1-1.91,0,2.49,2.49,0,0,1-.77-.52,2,2,0,0,1-.55-.78,2.51,2.51,0,0,1-.18-1,3.25,3.25,0,0,1,0-.33,3.29,3.29,0,0,1,.15-.57,2.3,2.3,0,0,1,.09-.25L16,63.6a3.8,3.8,0,0,1-.37.33,3.58,3.58,0,0,1-.42.25,2.63,2.63,0,0,1-.5.16,2.22,2.22,0,0,1-.51.06,2.38,2.38,0,0,1-.95-.2,2.66,2.66,0,0,1-.78-.52,2.11,2.11,0,0,1-.54-.78,2.62,2.62,0,0,1,0-1.91,2,2,0,0,1,.54-.77,2.11,2.11,0,0,1,.78-.54,2.55,2.55,0,0,1,.95-.18,2.43,2.43,0,0,1,.65.09,3,3,0,0,1,.61.23,4.52,4.52,0,0,1,.49.4,1.7,1.7,0,0,1,.38.5l7.21-3a.8.8,0,0,1-.09-.32,2.17,2.17,0,0,1,0-.36,2.27,2.27,0,0,1,.2-1,2.43,2.43,0,0,1,.52-.77,2.33,2.33,0,0,1,.77-.52,2.38,2.38,0,0,1,1.91,0,2.48,2.48,0,0,1,.78.52,2.07,2.07,0,0,1,.54.77,2.6,2.6,0,0,1,.18,1A2.5,2.5,0,0,1,28.11,58Zm0-39.58a2.42,2.42,0,0,1-.54.79,2.69,2.69,0,0,1-.78.53,2.37,2.37,0,0,1-.95.19,2.43,2.43,0,0,1-.65-.09,1.82,1.82,0,0,1-.58-.27,1.64,1.64,0,0,1-.5-.36,2.51,2.51,0,0,1-.4-.5l-7.17,3a2.34,2.34,0,0,1,.05.3,1.88,1.88,0,0,1,0,.34,1.67,1.67,0,0,1,0,.31,2.87,2.87,0,0,1-.05.31,1.9,1.9,0,0,1-.09.29c0,.09-.08.19-.13.28l4.62,3.32a3.07,3.07,0,0,1,.38-.34,1.68,1.68,0,0,1,.45-.27,1.81,1.81,0,0,1,.46-.17,3.1,3.1,0,0,1,.54-.05,2.39,2.39,0,0,1,1,.2,2.33,2.33,0,0,1,.77.52,3.13,3.13,0,0,1,.53.79,2.43,2.43,0,0,1,0,1.93,2.48,2.48,0,0,1-1.3,1.3,2.38,2.38,0,0,1-1.91,0,2.49,2.49,0,0,1-.77-.52,2,2,0,0,1-.55-.78,2.55,2.55,0,0,1-.18-.95,3.25,3.25,0,0,1,0-.33,1.67,1.67,0,0,1,.06-.29,1.52,1.52,0,0,1,.09-.28c0-.1.06-.18.09-.26L16,24a3.8,3.8,0,0,1-.37.33,3.58,3.58,0,0,1-.42.25,3.6,3.6,0,0,1-.5.16,2.21,2.21,0,0,1-.51,0,2.37,2.37,0,0,1-.95-.19,2.69,2.69,0,0,1-.78-.53,2,2,0,0,1-.54-.77,2.62,2.62,0,0,1,0-1.91,2.11,2.11,0,0,1,.54-.78,2.11,2.11,0,0,1,.78-.54,2.55,2.55,0,0,1,.95-.18,2.43,2.43,0,0,1,.65.09,3,3,0,0,1,.61.24,6,6,0,0,1,.49.39,1.89,1.89,0,0,1,.38.51l7.21-3a.8.8,0,0,1-.09-.32,2.17,2.17,0,0,1,0-.36,2.23,2.23,0,0,1,.2-1,2.33,2.33,0,0,1,.52-.77,2.51,2.51,0,0,1,.77-.53,2.5,2.5,0,0,1,1.91,0,2.69,2.69,0,0,1,.78.53,2,2,0,0,1,.54.77,2.56,2.56,0,0,1,.18,1A2.5,2.5,0,0,1,28.11,18.4Z"/></svg>