<svg width="20" height="20" viewBox="0 0 20 20" fill="none" xmlns="http://www.w3.org/2000/svg">
<path fill-rule="evenodd" clip-rule="evenodd" d="M0 0H20V20H0V0ZM6.53554 7.87868C6.14502 7.48816 6.14502 6.85499 6.53554 6.46447C6.92607 6.07394 7.55923 6.07394 7.94976 6.46447L10.0711 8.58579L12.1924 6.46447C12.5829 6.07394 13.2161 6.07394 13.6066 6.46447C13.9971 6.85499 13.9971 7.48816 13.6066 7.87868L11.4853 10L13.6066 12.1213C13.9971 12.5118 13.9971 13.145 13.6066 13.5355C13.2161 13.9261 12.5829 13.9261 12.1924 13.5355L10.0711 11.4142L7.94976 13.5355C7.55923 13.9261 6.92607 13.9261 6.53554 13.5355C6.14502 13.145 6.14502 12.5118 6.53554 12.1213L8.65686 10L6.53554 7.87868Z" fill="white"/>
</svg>
