<svg id="Layer_1" data-name="Layer 1" xmlns="http://www.w3.org/2000/svg" viewBox="0 0 100 24.65"><defs><style>.cls-1{fill:#3088d4;}.cls-2{fill:#ccc;}</style></defs><title>logo-mastodon</title><path class="cls-1" d="M22.51,14.78c-.34,1.74-3,3.64-6.12,4a29.21,29.21,0,0,1-4.89.29,28.11,28.11,0,0,1-4.95-.66,6.23,6.23,0,0,0,0,.77c.36,2.73,2.71,2.89,4.93,3a14.4,14.4,0,0,0,4.25-.56l.09,2a11.37,11.37,0,0,1-4.37,1A18.39,18.39,0,0,1,5.82,24C1,22.72.15,17.57,0,12.34c0-1.56,0-3,0-4.25,0-5.34,3.5-6.91,3.5-6.91C5.28.37,8.31,0,11.46,0h.08c3.15,0,6.18.37,8,1.18,0,0,3.51,1.57,3.51,6.91a41.36,41.36,0,0,1-.49,6.69"/><path class="cls-2" d="M4.86,6.8A1.41,1.41,0,1,1,6.27,8.21,1.41,1.41,0,0,1,4.86,6.8M25.07,8.51V15H22.51V8.7c0-1.33-.56-2-1.67-2S19,7.5,19,9.08v3.44H16.43V9.08c0-1.58-.61-2.38-1.85-2.38s-1.67.67-1.67,2V15H10.35V8.51a4.6,4.6,0,0,1,1-3.15,3.52,3.52,0,0,1,2.75-1.18,3.3,3.3,0,0,1,3,1.51l.64,1.07.64-1.07a3.3,3.3,0,0,1,3-1.51,3.52,3.52,0,0,1,2.75,1.18,4.6,4.6,0,0,1,1,3.15m8.84,3.22a3,3,0,0,0,.79-2.12,2.88,2.88,0,0,0-.79-2.09,2.68,2.68,0,0,0-3.88,0,3,3,0,0,0-.77,2.09A3,3,0,0,0,30,11.73a2.73,2.73,0,0,0,3.88,0m.79-7.29h2.53V14.79H34.7V13.57a3.76,3.76,0,0,1-3.2,1.51,4.33,4.33,0,0,1-3.37-1.57,5.76,5.76,0,0,1-1.4-3.9,5.73,5.73,0,0,1,1.4-3.87A4.35,4.35,0,0,1,31.5,4.15a3.76,3.76,0,0,1,3.2,1.51Zm11,5a2.75,2.75,0,0,1,1.1,2.34,3,3,0,0,1-1.14,2.47,4.68,4.68,0,0,1-2.81.84,4.07,4.07,0,0,1-4.11-2.46L41,11.31a1.85,1.85,0,0,0,1.92,1.35c.91,0,1.36-.29,1.36-.89,0-.44-.59-.83-1.79-1.14-.45-.12-.82-.25-1.12-.35a4.35,4.35,0,0,1-1.05-.58,2.7,2.7,0,0,1-1.1-2.26A2.93,2.93,0,0,1,40.25,5a4,4,0,0,1,2.66-.89,4,4,0,0,1,3.73,2.19L44.48,7.58a1.61,1.61,0,0,0-1.57-1c-.76,0-1.13.29-1.13.85s.58.83,1.78,1.14a5.58,5.58,0,0,1,2.18.91m8-2.43H51.56v4.31a.94.94,0,0,0,.57,1,5.14,5.14,0,0,0,1.65.08v2.42c-1.71.21-2.94.05-3.67-.51a3.52,3.52,0,0,1-1.08-3V7h-1.7V4.44H49V2.34l2.53-.81V4.44h2.22Zm8.06,4.67a2.88,2.88,0,0,0,.76-2.06,2.87,2.87,0,0,0-.76-2,2.67,2.67,0,0,0-3.81,0,3,3,0,0,0-.74,2.05A3,3,0,0,0,58,11.67a2.67,2.67,0,0,0,3.81,0m-5.59,1.84a5.43,5.43,0,0,1-1.49-3.9,5.41,5.41,0,0,1,1.49-3.87,5.07,5.07,0,0,1,7.37,0,5.46,5.46,0,0,1,1.51,3.87,5.48,5.48,0,0,1-1.51,3.9,5.11,5.11,0,0,1-7.37,0m17.33-1.78a3,3,0,0,0,.77-2.12,3,3,0,0,0-.77-2.09,2.49,2.49,0,0,0-1.94-.83,2.58,2.58,0,0,0-2,.83,2.94,2.94,0,0,0-.76,2.09,3,3,0,0,0,.76,2.12,2.66,2.66,0,0,0,2,.81,2.54,2.54,0,0,0,1.94-.81M74.35.29h2.53v14.5H74.35V13.57a3.69,3.69,0,0,1-3.18,1.51,4.37,4.37,0,0,1-3.39-1.57,5.75,5.75,0,0,1-1.39-3.9,5.73,5.73,0,0,1,1.39-3.87,4.39,4.39,0,0,1,3.39-1.59,3.69,3.69,0,0,1,3.18,1.51ZM85.76,11.67a2.89,2.89,0,0,0,.77-2.06,2.88,2.88,0,0,0-.77-2,2.66,2.66,0,0,0-3.8,0,3,3,0,0,0-.75,2.05A3,3,0,0,0,82,11.67a2.66,2.66,0,0,0,3.8,0m-5.59,1.84a5.43,5.43,0,0,1-1.49-3.9,5.41,5.41,0,0,1,1.49-3.87,5.08,5.08,0,0,1,7.38,0,5.46,5.46,0,0,1,1.51,3.87,5.48,5.48,0,0,1-1.51,3.9,5.12,5.12,0,0,1-7.38,0M100,8.43v6.36H97.47v-6a2.29,2.29,0,0,0-.53-1.6,1.85,1.85,0,0,0-1.41-.54c-1.43,0-2.16.85-2.16,2.57v5.59H90.84V4.44h2.53V5.6a3.16,3.16,0,0,1,2.92-1.45,3.41,3.41,0,0,1,2.65,1.13A4.45,4.45,0,0,1,100,8.43"/></svg>