<svg id="Layer_1" data-name="Layer 1" xmlns="http://www.w3.org/2000/svg" viewBox="0 0 24 24"><defs><style>.cls-1{fill:#dd4059;}</style></defs><title>menu-settings</title><path class="cls-1" d="M5.23,20.24a2,2,0,0,0-.47-.76,1.85,1.85,0,0,0-.67-.6,4.31,4.31,0,0,0-.86-.35V3.08H2.16V18.53a4.31,4.31,0,0,0-.86.35,1.94,1.94,0,0,0-.67.6,2,2,0,0,0-.47.76,2.76,2.76,0,0,0-.16,1,2.4,2.4,0,0,0,.22,1,4.17,4.17,0,0,0,.54.86,2.91,2.91,0,0,0,.89.6,2.49,2.49,0,0,0,1,.22,2.64,2.64,0,0,0,1.08-.22,2.91,2.91,0,0,0,.89-.6,4.17,4.17,0,0,0,.54-.86,2.4,2.4,0,0,0,.22-1A2.76,2.76,0,0,0,5.23,20.24Zm-1,1.59a1.59,1.59,0,0,1-.32.51,1.9,1.9,0,0,1-.54.38,1.71,1.71,0,0,1-.67.12,1.53,1.53,0,0,1-.6-.12,1.9,1.9,0,0,1-.54-.38,1.78,1.78,0,0,1-.32-.51,1.74,1.74,0,0,1,0-1.27,1.78,1.78,0,0,1,.32-.51c.17-.12.35-.24.54-.35a1.27,1.27,0,0,1,.6-.15,1.41,1.41,0,0,1,.67.15c.19.11.37.23.54.35a1.59,1.59,0,0,1,.32.51,1.74,1.74,0,0,1,0,1.27Z"/><path class="cls-1" d="M14.54,10.81a3.25,3.25,0,0,0-.45-.76,2.57,2.57,0,0,0-.69-.6,3.39,3.39,0,0,0-.83-.35v-6H11.43v6a3.39,3.39,0,0,0-.83.35,2.57,2.57,0,0,0-.69.6,3.25,3.25,0,0,0-.45.76,2.52,2.52,0,0,0-.19.95,2.48,2.48,0,0,0,.19,1,3.25,3.25,0,0,0,.45.76,2.61,2.61,0,0,0,.69.61,3.81,3.81,0,0,0,.83.34v6.5h1.14v-6.5a3.81,3.81,0,0,0,.83-.34,2.61,2.61,0,0,0,.69-.61,3.25,3.25,0,0,0,.45-.76,2.48,2.48,0,0,0,.19-1A2.52,2.52,0,0,0,14.54,10.81Zm-1,1.59a1.07,1.07,0,0,1-.38.5,1.09,1.09,0,0,1-.51.38,1.59,1.59,0,0,1-1.26,0,1.09,1.09,0,0,1-.51-.38,1.07,1.07,0,0,1-.38-.5,1.66,1.66,0,0,1-.13-.64,1.58,1.58,0,0,1,.13-.63,1.15,1.15,0,0,1,.38-.51,1.09,1.09,0,0,1,.51-.38,1.59,1.59,0,0,1,1.26,0,1.09,1.09,0,0,1,.51.38,1.15,1.15,0,0,1,.38.51,1.58,1.58,0,0,1,.13.63A1.66,1.66,0,0,1,13.52,12.4Z"/><path class="cls-1" d="M18.77,3.76a2,2,0,0,0,.47.76,1.85,1.85,0,0,0,.67.6,4.31,4.31,0,0,0,.86.35V20.92h1.07V5.47a4.31,4.31,0,0,0,.86-.35,1.94,1.94,0,0,0,.67-.6,2,2,0,0,0,.47-.76,2.76,2.76,0,0,0,.16-1,2.4,2.4,0,0,0-.22-1A4.17,4.17,0,0,0,23.24.9a2.91,2.91,0,0,0-.89-.6,2.49,2.49,0,0,0-1-.22A2.64,2.64,0,0,0,20.26.3a2.91,2.91,0,0,0-.89.6,4.17,4.17,0,0,0-.54.86,2.4,2.4,0,0,0-.22,1A2.76,2.76,0,0,0,18.77,3.76Zm1-1.59a1.59,1.59,0,0,1,.32-.51,1.9,1.9,0,0,1,.54-.38,1.71,1.71,0,0,1,.67-.12,1.53,1.53,0,0,1,.6.12,1.9,1.9,0,0,1,.54.38,1.78,1.78,0,0,1,.32.51,1.74,1.74,0,0,1,0,1.27,1.78,1.78,0,0,1-.32.51c-.17.12-.35.24-.54.35a1.27,1.27,0,0,1-.6.15,1.41,1.41,0,0,1-.67-.15c-.19-.11-.37-.23-.54-.35a1.59,1.59,0,0,1-.32-.51,1.74,1.74,0,0,1,0-1.27Z"/></svg>