<svg id="Layer_1" data-name="Layer 1" xmlns="http://www.w3.org/2000/svg" viewBox="0 0 24 24"><defs><style>.cls-1{fill:#dd4059;}</style></defs><title>menu-started</title><rect class="cls-1" x="7.43" y="2.49" width="16.57" height="1.08"/><rect class="cls-1" x="7.43" y="11.22" width="16.57" height="1.08"/><rect class="cls-1" x="7.43" y="20.66" width="16.57" height="1.08"/><polygon class="cls-1" points="2.72 4.87 6.08 0.64 5.11 -0.13 2.24 3.5 0.97 1.9 0 2.67 1.75 4.87 2.72 4.87"/><path class="cls-1" d="M4.77,19.32a2.91,2.91,0,0,0-.89-.6,2.42,2.42,0,0,0-1-.22,2.64,2.64,0,0,0-1.08.22,3,3,0,0,0-.89.6,4.17,4.17,0,0,0-.54.86,2.6,2.6,0,0,0-.22,1.05,3,3,0,0,0,.16.95,2.14,2.14,0,0,0,.48.76,1.9,1.9,0,0,0,.66.6,4,4,0,0,0,.86.35H3.38a3.91,3.91,0,0,0,.85-.35,1.85,1.85,0,0,0,.67-.6,2,2,0,0,0,.47-.76,2.71,2.71,0,0,0,.16-.95,2.44,2.44,0,0,0-.22-1.05A4.17,4.17,0,0,0,4.77,19.32Zm-.44,2.54a1.59,1.59,0,0,1-.32.51,5,5,0,0,1-.54.35,1.28,1.28,0,0,1-.6.16,1.44,1.44,0,0,1-.67-.16,5,5,0,0,1-.54-.35,1.82,1.82,0,0,1-.44-1.14,1.63,1.63,0,0,1,.13-.64,1.43,1.43,0,0,1,.31-.5,1.94,1.94,0,0,1,.54-.39,1.74,1.74,0,0,1,.67-.12,1.53,1.53,0,0,1,.6.12,1.94,1.94,0,0,1,.54.39,1.44,1.44,0,0,1,.32.5,1.81,1.81,0,0,1,.12.64A1.76,1.76,0,0,1,4.33,21.86Z"/><path class="cls-1" d="M1.22,14.11a4.56,4.56,0,0,0,.86.35H3.16A4.48,4.48,0,0,0,4,14.11a1.85,1.85,0,0,0,.67-.6,2,2,0,0,0,.47-.77,2.67,2.67,0,0,0,.16-1,2.36,2.36,0,0,0-.22-1,3.92,3.92,0,0,0-.54-.86,2.91,2.91,0,0,0-.89-.6,2.46,2.46,0,0,0-1-.22,2.64,2.64,0,0,0-1.08.22,3,3,0,0,0-.89.6,3.92,3.92,0,0,0-.54.86,2.51,2.51,0,0,0-.22,1,2.67,2.67,0,0,0,.16,1,2,2,0,0,0,.48.77A1.82,1.82,0,0,0,1.22,14.11Zm-.09-2.95a1.58,1.58,0,0,1,.31-.51A1.9,1.9,0,0,1,2,10.27a1.7,1.7,0,0,1,.67-.13,1.54,1.54,0,0,1,.6.13,1.9,1.9,0,0,1,.54.38,1.59,1.59,0,0,1,.32.51,1.76,1.76,0,0,1,.12.63,1.81,1.81,0,0,1-.12.64,1.44,1.44,0,0,1-.32.5,3.84,3.84,0,0,1-.54.35,1.17,1.17,0,0,1-.6.16A1.3,1.3,0,0,1,2,13.28a3.84,3.84,0,0,1-.54-.35,1.43,1.43,0,0,1-.31-.5A1.63,1.63,0,0,1,1,11.79,1.58,1.58,0,0,1,1.13,11.16Z"/></svg>