<svg id="Layer_1" data-name="Layer 1" xmlns="http://www.w3.org/2000/svg" viewBox="0 0 24 24"><defs><style>.cls-1{fill:#dd4059;}</style></defs><title>menu-hashtag</title><path class="cls-1" d="M15.85,16.34h3.46V14.76H16.05l0-.35.68-5.57,0-.27h3.27V7H17l0-.34.8-6.59H16.45l-.82,6.66,0,.27H10l0-.34.8-6.59H9.4L8.58,6.72l0,.27H5.08V8.57H8.35l0,.35-.68,5.57,0,.27H4.32v1.58H7.4l0,.34-.91,7.38H7.87l.91-7.45,0-.27h5.63l0,.34-.91,7.38h1.43l.9-7.45Zm-.49-7.42-.69,5.57,0,.27H9l.05-.35.67-5.57,0-.27H15.4Z"/></svg>