<svg id="Layer_1" data-name="Layer 1" xmlns="http://www.w3.org/2000/svg" viewBox="0 0 24 24"><title>menu-notification</title><g id="Canvas"><g id="icon-notification"><path fill="#DD4059" id="path0_fill" data-name="path0 fill" d="M20.49,16V10A8.44,8.44,0,0,0,20,7,8.52,8.52,0,0,0,18.5,4.51a8.14,8.14,0,0,0-2.23-1.84,9.18,9.18,0,0,0-2.75-1V1a1,1,0,0,0-.29-.7,1,1,0,0,0-.7-.29H11.47a1,1,0,0,0-.7.29,1,1,0,0,0-.29.7v.64A8.74,8.74,0,0,0,7.73,2.69,9.24,9.24,0,0,0,5.5,4.51a8.49,8.49,0,0,0-2,5.5v6L0,18.85v1.64H24V18.85ZM23,19.49H1v-.12L4.5,16.5V10a7.26,7.26,0,0,1,.59-2.93,7.73,7.73,0,0,1,1.64-2.4A7.42,7.42,0,0,1,9.1,3.1a7.54,7.54,0,0,1,5.83,0,8.27,8.27,0,0,1,2.4,1.58,8.27,8.27,0,0,1,1.58,2.4A7.26,7.26,0,0,1,19.5,10V16.5L23,19.37ZM12,24a2.26,2.26,0,0,0,1-.2,2.82,2.82,0,0,0,1.35-1.35,2.26,2.26,0,0,0,.2-1h-5a2.26,2.26,0,0,0,.2,1A2.82,2.82,0,0,0,11,23.8,2.26,2.26,0,0,0,12,24Z"/></g></g></svg>