<svg id="Layer_1" data-name="Layer 1" xmlns="http://www.w3.org/2000/svg" viewBox="0 0 24 24"><defs><style>.cls-1{fill:#dd4059;}</style></defs><title>menu-notification</title><g id="Canvas"><g id="icon-notification"><path id="path0_fill" data-name="path0 fill" class="cls-1" d="M20.49,16V10A8.2,8.2,0,0,0,20,7,8.53,8.53,0,0,0,18.5,4.51a8.16,8.16,0,0,0-2.23-1.85,9.1,9.1,0,0,0-2.75-1V1a1,1,0,0,0-1-1H11.47a1,1,0,0,0-1,1v.64A8.66,8.66,0,0,0,7.73,2.69,9.29,9.29,0,0,0,5.5,4.51,8.53,8.53,0,0,0,4,7a8.2,8.2,0,0,0-.53,3v6L0,18.85v1.64H24V18.85ZM23,19.49H1v-.12L4.5,16.5V10a7.22,7.22,0,0,1,.59-2.92A7.87,7.87,0,0,1,6.73,4.68,7.48,7.48,0,0,1,12,2.52a7.3,7.3,0,0,1,2.93.58,8.27,8.27,0,0,1,2.4,1.58,8.45,8.45,0,0,1,1.58,2.41A7.22,7.22,0,0,1,19.5,10V16.5L23,19.37ZM12,24a2.4,2.4,0,0,0,1-.2,3.07,3.07,0,0,0,.79-.56,2.81,2.81,0,0,0,.55-.79,2.22,2.22,0,0,0,.21-1h-5a2.22,2.22,0,0,0,.21,1,2.81,2.81,0,0,0,.55.79,3.07,3.07,0,0,0,.79.56A2.4,2.4,0,0,0,12,24Z"/></g></g></svg>