<svg id="Layer_1" data-name="Layer 1" xmlns="http://www.w3.org/2000/svg" viewBox="0 0 24 24"><defs><style>.cls-1{fill:#dd4059;}</style></defs><title>menu-global</title><g id="Canvas"><g id="icon-global"><path id="path0_fill" data-name="path0 fill" class="cls-1" d="M12,0A11.63,11.63,0,0,0,7.33.94,12.17,12.17,0,0,0,.94,7.33,11.63,11.63,0,0,0,0,12a11.63,11.63,0,0,0,.94,4.67,12.17,12.17,0,0,0,6.39,6.39A11.63,11.63,0,0,0,12,24a11.63,11.63,0,0,0,4.67-.94,12.17,12.17,0,0,0,6.39-6.39A11.63,11.63,0,0,0,24,12a11.63,11.63,0,0,0-.94-4.67A12.17,12.17,0,0,0,16.67.94,11.63,11.63,0,0,0,12,0ZM8.07,1.53a17.49,17.49,0,0,0-.92,2.05,19.39,19.39,0,0,0-.84,3H2.2A10.91,10.91,0,0,1,4.67,3.56,11.38,11.38,0,0,1,8.07,1.53ZM1.78,7.45h4.4c-.1.6-.18,1.25-.24,1.94a21.84,21.84,0,0,0-.1,2.2h-5A10.22,10.22,0,0,1,1.1,9.43,9.84,9.84,0,0,1,1.78,7.45Zm-.95,5h5A21.73,21.73,0,0,0,6,14.61c.07.69.14,1.34.23,1.94H1.81a11.45,11.45,0,0,1-.7-2A9.45,9.45,0,0,1,.83,12.41Zm1.37,5H6.34a17.54,17.54,0,0,0,.82,3,19.14,19.14,0,0,0,.93,2,10.84,10.84,0,0,1-3.4-2A11.59,11.59,0,0,1,2.2,17.38Zm9.44,5.79a10.87,10.87,0,0,1-1.28-.11,12.17,12.17,0,0,1-1.23-.25,14.29,14.29,0,0,1-1-2.11,18.34,18.34,0,0,1-.93-3.32h4.48Zm0-6.62H7c-.09-.6-.16-1.25-.22-1.94s-.1-1.42-.12-2.2h5Zm0-5h-5a21.73,21.73,0,0,1,.11-2.2c.06-.69.14-1.34.23-1.94h4.63Zm0-5H7.14a18.56,18.56,0,0,1,.93-3.3,15.51,15.51,0,0,1,1-2.1A7.77,7.77,0,0,1,10.33.94,11,11,0,0,1,11.64.83Zm11.53,5H18.26c0-.78,0-1.51-.09-2.2S18,8.05,17.92,7.45h4.27a11.42,11.42,0,0,1,.69,2A11.49,11.49,0,0,1,23.17,11.59Zm-1.39-5h-4a20.43,20.43,0,0,0-.82-3,15.88,15.88,0,0,0-.91-2,10.58,10.58,0,0,1,3.31,2A11.09,11.09,0,0,1,21.78,6.62ZM12.47.83a9.23,9.23,0,0,1,1.3.13c.42.07.84.15,1.26.26a17.41,17.41,0,0,1,1,2.12A17.23,17.23,0,0,1,17,6.62h-4.5Zm0,6.62h4.62c.09.6.17,1.25.24,1.94a21.84,21.84,0,0,1,.1,2.2h-5Zm0,5h5c0,.78-.05,1.51-.12,2.2s-.14,1.34-.24,1.94h-4.6Zm0,10.76V17.38h4.47a18.56,18.56,0,0,1-.93,3.3,15.51,15.51,0,0,1-1,2.1c-.41.11-.83.19-1.25.26A9.25,9.25,0,0,1,12.47,23.17ZM16,22.45A16.18,16.18,0,0,0,17,20.39a18.35,18.35,0,0,0,.82-3h4a10.94,10.94,0,0,1-2.42,3A11.16,11.16,0,0,1,16,22.45Zm6.13-5.9H17.92c.09-.6.17-1.25.24-1.94s.1-1.42.1-2.2h4.91a11,11,0,0,1-1,4.14Z"/></g></g></svg>