<svg id="Layer_1" data-name="Layer 1" xmlns="http://www.w3.org/2000/svg" viewBox="0 0 24 24"><defs><style>.cls-1{fill:#dd4059;}</style></defs><title>menu-instance</title><polygon class="cls-1" points="19.55 18.91 17.62 21.62 16.97 20.57 16.15 21.61 17.53 23.85 19.42 21.2 20.72 22.01 19.55 18.91"/><polygon class="cls-1" points="8.36 3.43 9.99 7.81 12.88 5.3 13.68 7.62 14.66 6.48 13.51 3.1 10.56 5.66 8.88 1.14 5.75 4.11 4.25 0.15 3.28 1.12 5.27 6.36 8.36 3.43"/><path class="cls-1" d="M14,10.11a5.29,5.29,0,0,0-2.5-10A5.19,5.19,0,0,0,9.8.43l.44,1.2a3.9,3.9,0,0,1,1.24-.23,4.06,4.06,0,0,1,4.06,4.06A4,4,0,0,1,14.65,8v0a3.94,3.94,0,0,1-.64.65h0a5,5,0,0,1-.47.33L13.49,9V9A4,4,0,0,1,7.49,6l-1.1.88A5.29,5.29,0,0,0,9,10.11a6.23,6.23,0,1,0,5,0Zm-2.5,10.67a5,5,0,1,1,5-5A5,5,0,0,1,11.48,20.78Z"/></svg>