<svg id="Layer_1" data-name="Layer 1" xmlns="http://www.w3.org/2000/svg" viewBox="0 0 16 16"><defs><style>.cls-1{fill:#999;}</style></defs><title>status-followers</title><polygon class="cls-1" points="0 1.56 0.5 1.56 1 1.56 1 1 1.5 1 1.5 0.5 1.5 0 0 0 0 1.56"/><polygon class="cls-1" points="9.5 0.5 9.5 0 6.5 0 6.5 0.5 6.5 1 9.5 1 9.5 0.5"/><polygon class="cls-1" points="1 10.93 0.5 10.93 0 10.93 0 12.49 1.5 12.49 1.5 11.99 1.5 11.49 1 11.49 1 10.93"/><polygon class="cls-1" points="1 5.73 1 2.6 0.5 2.6 0 2.6 0 5.73 0.5 5.73 1 5.73"/><polygon class="cls-1" points="1 9.89 1 6.77 0.5 6.77 0 6.77 0 9.89 0.5 9.89 1 9.89"/><polygon class="cls-1" points="2.5 0.5 2.5 1 5.5 1 5.5 0.5 5.5 0 2.5 0 2.5 0.5"/><polygon class="cls-1" points="10.5 0.5 10.5 1 13.5 1 13.5 0.5 13.5 0 10.5 0 10.5 0.5"/><polygon class="cls-1" points="14.5 0 14.5 0.5 14.5 1 15 1 15 1.56 15.5 1.56 16 1.56 16 0 14.5 0"/><polygon class="cls-1" points="15 2.6 15 5.73 15.5 5.73 16 5.73 16 2.6 15.5 2.6 15 2.6"/><polygon class="cls-1" points="15 6.77 15 9.89 15.5 9.89 16 9.89 16 6.77 15.5 6.77 15 6.77"/><polygon class="cls-1" points="13 11.49 12 11.49 12 11.49 12 12.49 12 13.77 9.73 11.75 9.45 11.49 9.45 11.49 9.07 11.49 9.07 11.49 6.5 11.49 6.5 11.99 6.5 12.49 9.07 12.49 9.07 12.49 9.07 12.49 10.54 13.81 10.54 13.81 11.52 14.69 11.52 14.69 13 16 13 16 13 16 13 12.49 13.5 12.49 13.5 11.99 13.5 11.49 13 11.49 13 11.49"/><polygon class="cls-1" points="15 10.99 15 11.49 14.44 11.49 14.44 11.99 14.44 12.49 16 12.49 16 10.99 15.5 10.99 15 10.99"/><polygon class="cls-1" points="2.5 11.99 2.5 12.49 5.5 12.49 5.5 11.99 5.5 11.49 2.5 11.49 2.5 11.99"/></svg>