<svg id="Layer_1" data-name="Layer 1" xmlns="http://www.w3.org/2000/svg" viewBox="0 0 16 16"><defs><style>.cls-1{fill:#999;}</style></defs><title>status-direct</title><path class="cls-1" d="M10.47,0a3.44,3.44,0,0,1,.69,1H15v10.5H12v2.27l-2.27-2-.28-.25H1V1H4.84a3.44,3.44,0,0,1,.69-1H0v12.5H9.07L13,16v-3.5h3V0Z"/><path class="cls-1" d="M6,1A2.49,2.49,0,0,0,5.5,2.5V4h-1V9h7V4h-1V2.5A2.49,2.49,0,0,0,10,1h0A3.07,3.07,0,0,0,9.66.64h0a2,2,0,0,0-.4-.29h0a2.46,2.46,0,0,0-.47-.2h0A3.1,3.1,0,0,0,8.21,0h0L8,0,7.79,0h0a3.1,3.1,0,0,0-.53.1h0a2.46,2.46,0,0,0-.47.2h0a2,2,0,0,0-.4.29h0A3.07,3.07,0,0,0,6,1ZM8.5,7a.5.5,0,0,1-1,0V6a.5.5,0,0,1,1,0Zm1-4.5V4h-3V2.5A1.51,1.51,0,0,1,7.79,1h.42A1.51,1.51,0,0,1,9.5,2.5Z"/></svg>