<svg id="Layer_1" data-name="Layer 1" xmlns="http://www.w3.org/2000/svg" viewBox="0 0 16 16"><defs><style>.cls-1{fill:#999;}</style></defs><title>status-global</title><path class="cls-1" d="M13.66,2.36A8.28,8.28,0,0,0,11.11.65a8,8,0,0,0-6.22,0A8.28,8.28,0,0,0,2.34,2.36,8.16,8.16,0,0,0,.63,4.91,7.72,7.72,0,0,0,0,8a8,8,0,0,0,.47,2.69H1.58a6.77,6.77,0,0,1-.37-1.1,5.31,5.31,0,0,1-.16-1.07H3.78c0,.42,0,.82.06,1.19s.07.67.12,1H5c0-.32-.07-.67-.11-1s0-.75-.06-1.14h2.7v2.17h1V8.54h2.7c0,.39,0,.78-.07,1.14s-.07.7-.12,1h1c0-.31.08-.64.11-1s.06-.77.07-1.19H15a6.13,6.13,0,0,1-.18,1.07,6.77,6.77,0,0,1-.37,1.1h1.13A7.81,7.81,0,0,0,16,8a7.72,7.72,0,0,0-.63-3.11A8.16,8.16,0,0,0,13.66,2.36Zm-9.83,4c0,.38-.05.78-.05,1.19H1.05A6.65,6.65,0,0,1,1.2,6.41a6.52,6.52,0,0,1,.36-1.08H4C3.9,5.64,3.86,6,3.83,6.31Zm.29-2h-2A6.77,6.77,0,0,1,3.43,2.76a6.6,6.6,0,0,1,1.51-1c-.1.22-.2.47-.31.73A13,13,0,0,0,4.12,4.3Zm3.4,3.2H4.81q0-.6.06-1.14c0-.36.08-.71.12-1H7.52Zm0-3.2H5.17a10.82,10.82,0,0,1,.52-1.79,10.57,10.57,0,0,1,.59-1.24A5.12,5.12,0,0,1,7,1.13a4.8,4.8,0,0,1,.56-.06Zm1-3.23a4.58,4.58,0,0,1,.55.07c.23,0,.46.08.69.13a11.89,11.89,0,0,1,.58,1.25A10.34,10.34,0,0,1,10.9,4.3H8.55Zm0,6.43V5.33h2.52c0,.32.09.67.12,1s.06.74.07,1.14Zm3.39-3.2a11.41,11.41,0,0,0-.5-1.78l-.29-.73a6.66,6.66,0,0,1,1.44,1A6.72,6.72,0,0,1,13.88,4.3Zm.35,3.2c0-.41,0-.81-.06-1.19s-.07-.67-.11-1h2.3a7,7,0,0,1,.36,1.09A7.6,7.6,0,0,1,15,7.5Z"/><polygon class="cls-1" points="15 11.52 13 11.52 12 11.52 12 12.52 12 13.79 9.73 11.77 9.45 11.52 9.07 11.52 3.05 11.52 3.05 11.49 3.01 11.49 3.02 11.52 1 11.52 1 11.52 0 11.52 0 12.52 9.07 12.52 13 16.02 13 12.52 16 12.52 16 11.52 15 11.52 15 11.52"/><path class="cls-1" d="M12.06,0a9,9,0,0,1,1.56,1H15V2.37a9.32,9.32,0,0,1,1,1.55V0Z"/><path class="cls-1" d="M1,1H2.38A9,9,0,0,1,3.94,0H0V3.92A10,10,0,0,1,1,2.37Z"/></svg>