<svg id="Layer_1" data-name="Layer 1" xmlns="http://www.w3.org/2000/svg" viewBox="0 0 16 16"><defs><style>.cls-1{fill:#999;}</style></defs><title>status-unlisted</title><path class="cls-1" d="M11.84,11.17l-.71-.71h0L8.24,7.56,4.83,4.16h0L1.23.55l-.71.71L4.13,4.87a4.91,4.91,0,0,0,0,6.28l-3,3a.48.48,0,0,0,0,.7.48.48,0,0,0,.7,0l3-3a4.91,4.91,0,0,0,6.28,0l3.53,3.53.71-.7-3.53-3.53ZM8,12A4,4,0,0,1,4,8a3.91,3.91,0,0,1,.84-2.42l5.58,5.58A3.91,3.91,0,0,1,8,12Z"/><path class="cls-1" d="M6.43,4.34a4,4,0,0,1,5.23,5.23l.74.74A4.87,4.87,0,0,0,13,8,5,5,0,0,0,8,3a4.87,4.87,0,0,0-2.31.6Z"/></svg>