<?xml version="1.0" standalone="no"?> <!DOCTYPE svg PUBLIC "-//W3C//DTD SVG 1.0//EN" "http://www.w3.org/TR/2001/REC-SVG-20010904/DTD/svg10.dtd" > <svg xmlns="http://www.w3.org/2000/svg" width="100%" height="100%">
<defs >
<font id="Altero-Regular" horiz-adv-x="714" ><font-face
    font-family="Altero-Regular"
    units-per-em="1000"
    panose-1="0 0 5 0 0 0 0 0 0 0"
    ascent="840"
    descent="0"
    alphabetic="0" />
<missing-glyph horiz-adv-x="500" d="M0 0V700H500V0H0ZM250 395L420 650H80L250 395ZM280 350L450 95V605L280 350ZM80 50H420L250 305L80 50ZM50 605V95L220 350L50 605Z" />
<glyph unicode=" " glyph-name="space" horiz-adv-x="360" />
<glyph unicode="!" glyph-name="exclam" horiz-adv-x="264" d="M204 238H60V700H204V238ZM102 144T132 144T183 123T204 72Q204 42 183 21T132 0T81 21T60 72Q60 101 81 122Z" />
<glyph unicode="&quot;" glyph-name="quotedbl" horiz-adv-x="468" d="M204 397H60V700H204V397ZM408 397H264V700H408V397Z" />
<glyph unicode="#" glyph-name="numbersign" horiz-adv-x="741" d="M561 541H681V397H561V303H681V159H561V0H417V159H323V0H179V159H60V303H179V397H60V541H179V700H323V541H417V700H561V541ZM323 397V303H417V397H323Z" />
<glyph unicode="$" glyph-name="dollar" horiz-adv-x="661" d="M331 700Q451 700 519 651Q559 623 580 581T601 489H457Q457 520 436 533Q414 549 367 554V421Q461 413 519 373Q559 345 580 303T601 211T580 119T519 49Q449 0 331 0Q214 0 142 49Q102 77 81 119T60
211H204Q204 180 225 167Q247 151 295 146V279Q200 287 142 327Q102 355 81 397T60 489T81 581T142 651Q212 700 331 700ZM295 424V554Q247 549 225 533Q204 520 204 489T225 445Q247 429 295 424ZM367 276V146Q414 151 436 167Q457 180 457 211T436 255Q414 271
367 276Z" />
<glyph unicode="%" glyph-name="percent" horiz-adv-x="939" d="M768 645L288 -28L171 56L651 729L768 645ZM158 700T241 700T373 651T422 519T373 387T241 338T109 387T60 519T109 651ZM241 556Q218 556 211 549T204 519Q204 498 211 489Q220 482 241 482Q264
482 271 489T278 519Q278 543 271 549Q265 556 241 556ZM616 363T698 363T829 314T879 182Q879 99 830 50T698 0T567 49T517 182Q517 264 566 313ZM698 219Q675 219 668 212T661 182Q661 158 668 152Q674 144 698 144Q720 144 728 152Q735 159 735 182Q735 203
728 212Q719 219 698 219Z" />
<glyph unicode="&amp;" glyph-name="ampersand" horiz-adv-x="813" d="M359 700Q414 700 460 678T533 615Q558 576 561 532Q564 489 545 442Q518 378 449 343Q474 317 532 263Q545 297 545 331V403H689V331Q689 244 644 166Q671 145 689 137L753 105L689 -24L625
8Q591 25 545 60Q521 43 490 30Q421 0 339 0Q263 0 198 30T96 112Q37 195 73 295Q101 372 178 409Q185 413 201 419Q192 442 190 448Q164 527 191 593Q213 645 259 673Q302 700 359 700ZM359 556Q332 556 324 537Q318 522 326 494Q334 473 344 457Q402 473 412
497Q421 522 413 535Q398 556 359 556ZM301 287L291 297Q220 278 209 247Q198 218 213 195Q228 174 260 160Q297 144 339 144Q388 144 430 161Q388 200 301 287Z" />
<glyph unicode="&apos;" glyph-name="quotesingle" horiz-adv-x="264" d="M204 397H60V700H204V397Z" />
<glyph unicode="(" glyph-name="parenleft" horiz-adv-x="359" d="M299 752L250 699Q204 647 204 549V151Q204 53 250 1L299 -52L192 -149L144 -96Q101 -49 80 15Q60 78 60 151V549Q60 622 80 685Q101 749 144 796L192 849L299 752Z" />
<glyph unicode=")" glyph-name="parenright" horiz-adv-x="359" d="M167 849L215 796Q258 749 279 685Q299 622 299 549V151Q299 78 279 15Q258 -49 215 -96L167 -149L60 -52L109 1Q155 53 155 151V549Q155 647 109 699L60 752L167 849Z" />
<glyph unicode="*" glyph-name="asterisk" horiz-adv-x="528" d="M300 548L432 624L468 562L336 486L468 410L432 347L300 423V271H228V423L96 347L60 410L192 486L60 562L96 624L228 548V700H300V548Z" />
<glyph unicode="+" glyph-name="plus" horiz-adv-x="582" d="M363 422H522V278H363V119H219V278H60V422H219V581H363V422Z" />
<glyph unicode="," glyph-name="comma" horiz-adv-x="298" d="M238 144V72Q238 -71 146 -143L89 -188L0 -75L56 -30Q94 -1 94 72V144H238Z" />
<glyph unicode="-" glyph-name="hyphen" horiz-adv-x="502" d="M442 278H60V422H442V278Z" />
<glyph unicode="." glyph-name="period" horiz-adv-x="264" d="M102 144T132 144T183 123T204 72Q204 42 183 21T132 0T81 21T60 72Q60 101 81 122Z" />
<glyph unicode="/" glyph-name="slash" horiz-adv-x="538" d="M478 795L198 -137L60 -96L340 837L478 795Z" />
<glyph unicode="0" glyph-name="zero" horiz-adv-x="662" d="M273 700T331 700T440 683Q490 665 529 628Q566 591 584 538Q602 490 602 429V271Q602 210 584 162Q565 108 529 73Q491 35 440 17Q389 0 331 0T222 17Q169 36 133 73Q97 108 78 162Q60 210 60 271V429Q60
490 78 538Q96 591 133 628Q169 664 222 683Q273 700 331 700ZM397 556T331 556T235 526Q204 495 204 429V271Q204 207 235 174Q265 144 331 144T427 174Q458 207 458 271V429Q458 495 427 526Q397 556 331 556Z" />
<glyph unicode="1" glyph-name="one" horiz-adv-x="351" d="M60 556V700Q165 700 229 638Q291 574 291 469V0H147V469Q147 515 127 536Q107 556 60 556Z" />
<glyph unicode="2" glyph-name="two" horiz-adv-x="661" d="M331 700Q451 700 523 643Q601 580 601 469T523 295Q451 238 331 238H291Q244 238 224 218Q204 199 204 151V144H601V0H60V167Q63 213 75 243Q90 288 122 320Q186 382 291 382H331Q401 382 433 408Q457
427 457 469Q457 509 433 531Q400 556 331 556Q261 556 228 531Q204 509 204 469H60Q60 580 138 643Q210 700 331 700Z" />
<glyph unicode="3" glyph-name="three" horiz-adv-x="661" d="M331 700Q451 700 519 651Q559 623 580 581T601 489T580 397Q568 372 546 350Q568 328 580 303Q601 261 601 211T580 119T519 49Q449 0 331 0Q210 0 138 57Q60 120 60 231H204Q204 191 228 169Q261
144 331 144Q404 144 436 167Q457 180 457 211T436 255Q404 278 331 278H251V422H331Q404 422 436 445Q457 458 457 489T436 533Q404 556 331 556Q261 556 228 531Q204 509 204 469H60Q60 580 138 643Q210 700 331 700Z" />
<glyph unicode="4" glyph-name="four" horiz-adv-x="672" d="M266 263H468V462H612V0H468V119H60L271 700H424L266 263Z" />
<glyph unicode="5" glyph-name="five" horiz-adv-x="661" d="M601 556H204V462H331Q451 462 523 405Q601 342 601 231T523 57Q451 0 331 0Q210 0 138 57Q60 120 60 231H204Q204 191 228 169Q261 144 331 144Q400 144 433 169Q457 191 457 231Q457 273 433 292Q401
318 331 318H60V700H601V556Z" />
<glyph unicode="6" glyph-name="six" horiz-adv-x="661" d="M331 700Q433 700 501 659Q576 611 596 524L455 494Q449 521 425 536Q393 556 331 556Q261 556 228 531Q204 509 204 469V441Q258 462 331 462Q451 462 523 405Q601 342 601 231T523 57Q451 0 331 0Q210
0 138 57Q60 120 60 231V469Q60 580 138 643Q210 700 331 700ZM331 318Q260 318 228 292Q204 273 204 231Q204 191 228 169Q261 144 331 144Q400 144 433 169Q457 191 457 231Q457 273 433 292Q401 318 331 318Z" />
<glyph unicode="7" glyph-name="seven" horiz-adv-x="659" d="M299 0H142L380 556H60V700H599L299 0Z" />
<glyph unicode="8" glyph-name="eight" horiz-adv-x="661" d="M331 700Q451 700 519 651Q559 623 580 581T601 489T580 397Q568 372 546 350Q568 328 580 303Q601 261 601 211T580 119T519 49Q449 0 331 0Q214 0 142 49Q102 77 81 119T60 211T81 303Q96 331 115
350Q96 369 81 397Q60 439 60 489T81 581T142 651Q212 700 331 700ZM331 556Q257 556 225 533Q204 520 204 489T225 445Q257 422 331 422Q404 422 436 445Q457 458 457 489T436 533Q404 556 331 556ZM331 278Q257 278 225 255Q204 242 204 211T225 167Q257 144
331 144Q404 144 436 167Q457 180 457 211T436 255Q404 278 331 278Z" />
<glyph unicode="9" glyph-name="nine" horiz-adv-x="661" d="M330 700Q451 700 523 643Q601 580 601 469V231Q601 120 523 57Q451 0 330 0Q228 0 160 41Q85 89 65 176L206 206Q212 179 236 164Q268 144 330 144Q400 144 433 169Q457 191 457 231V259Q403 238 330
238Q210 238 138 295Q60 358 60 469T138 643Q210 700 330 700ZM330 556Q261 556 228 531Q204 509 204 469Q204 427 228 408Q260 382 330 382Q401 382 433 408Q457 427 457 469Q457 509 433 531Q400 556 330 556Z" />
<glyph unicode=":" glyph-name="colon" horiz-adv-x="264" d="M102 422T132 422T183 401T204 350Q204 320 183 299T132 278T81 299T60 350Q60 379 81 400ZM102 144T132 144T183 123T204 72Q204 42 183 21T132 0T81 21T60 72Q60 101 81 122Z" />
<glyph unicode=";" glyph-name="semicolon" horiz-adv-x="298" d="M136 422T166 422T217 401T238 350Q238 320 217 299T166 278T115 299T94 350Q94 379 115 400ZM238 144V72Q238 -71 146 -143L89 -188L0 -75L56 -30Q94 -1 94 72V144H238Z" />
<glyph unicode="&lt;" glyph-name="less" horiz-adv-x="586" d="M526 584L272 350L526 116L428 10L60 350L428 690L526 584Z" />
<glyph unicode="=" glyph-name="equal" horiz-adv-x="582" d="M522 388H60V532H522V388ZM522 169H60V313H522V169Z" />
<glyph unicode="&gt;" glyph-name="greater" horiz-adv-x="586" d="M526 350L158 10L60 116L314 350L60 584L158 690L526 350Z" />
<glyph unicode="?" glyph-name="question" horiz-adv-x="576" d="M285 700Q388 700 450 646Q516 589 516 489T450 332Q413 299 357 285V238H213V422H285Q336 422 355 440Q372 454 372 489Q372 521 355 538Q334 556 285 556Q242 556 220 542Q204 531 200 512L60
545Q79 622 142 663Q201 700 285 700ZM255 144T285 144T336 123T357 72Q357 42 336 21T285 0T234 21T213 72Q213 101 234 122Z" />
<glyph unicode="@" glyph-name="at" horiz-adv-x="864" d="M432 722Q513 722 585 698Q658 672 705 623Q754 576 780 503Q804 431 804 350Q804 259 767 202Q724 137 644 137T521 203Q478 177 420 177Q341 177 293 223Q247 271 247 350Q247 430 293 476Q340 523
420 523Q455 523 485 513V523H593V350Q593 291 611 262Q622 245 644 245T677 262Q696 290 696 350Q696 480 629 547T432 614T235 547Q168 481 168 350T235 153Q301 86 432 86Q524 86 584 119L636 24Q549 -22 432 -22Q346 -22 278 2Q206 28 158 76T84 196Q60 264
60 350T84 503Q111 577 158 623Q208 672 278 698Q350 722 432 722ZM420 415Q385 415 370 400T355 350Q355 314 370 300Q384 285 420 285Q455 285 470 300T485 350Q485 384 470 400Q454 415 420 415Z" />
<glyph unicode="A" glyph-name="A" horiz-adv-x="862" d="M802 0H643L606 79H256L219 0H60L385 700H477L802 0ZM322 223H539L431 457L322 223Z" />
<glyph unicode="B" glyph-name="B" horiz-adv-x="780" d="M60 700H509Q606 700 663 643T720 489Q720 405 677 350Q720 295 720 211Q720 114 663 57T509 0H60V700ZM204 556V422H509Q546 422 561 437Q576 451 576 489T561 541Q546 556 509 556H204ZM204 278V144H509Q546
144 561 159Q576 173 576 211T561 263Q546 278 509 278H204Z" />
<glyph unicode="C" glyph-name="C" horiz-adv-x="805" d="M410 700Q536 700 625 642Q669 611 700 567Q730 524 745 468L606 430Q590 493 544 522Q495 556 410 556Q204 556 204 350T410 144Q495 144 544 178Q590 207 606 270L745 232Q730 176 700 133Q669 89 625
58Q536 0 410 0Q335 0 267 22Q199 47 153 93T82 207Q60 275 60 350T82 493Q107 561 153 607T267 678Q330 700 410 700Z" />
<glyph unicode="D" glyph-name="D" horiz-adv-x="780" d="M60 700H370Q451 700 513 678Q580 654 627 607Q673 561 698 493Q720 430 720 350T698 207Q673 139 627 93Q580 46 513 22Q447 0 370 0H60V700ZM204 556V144H370Q576 144 576 350T370 556H204Z" />
<glyph unicode="E" glyph-name="E" horiz-adv-x="701" d="M641 556H204V422H641V278H204V144H641V0H60V700H641V556Z" />
<glyph unicode="F" glyph-name="F" horiz-adv-x="701" d="M641 556H204V422H601V278H204V0H60V700H641V556Z" />
<glyph unicode="G" glyph-name="G" horiz-adv-x="820" d="M410 700Q512 700 590 662Q670 623 714 544L589 474Q567 512 526 533Q478 556 410 556Q204 556 204 350T410 144Q578 144 609 278H370V422H760V350Q760 270 738 207Q713 139 667 93T553 22Q485 0 410 0T267
22Q199 47 153 93T82 207Q60 275 60 350T82 493Q107 561 153 607T267 678Q330 700 410 700Z" />
<glyph unicode="H" glyph-name="H" horiz-adv-x="741" d="M681 0H537V278H204V0H60V700H204V422H537V700H681V0Z" />
<glyph unicode="I" glyph-name="I" horiz-adv-x="264" d="M204 0H60V700H204V0Z" />
<glyph unicode="J" glyph-name="J" horiz-adv-x="463" d="M403 700V271Q403 210 385 162Q366 108 330 73Q294 36 241 17Q190 0 132 0H60V144H132Q198 144 228 174Q259 207 259 271V700H403Z" />
<glyph unicode="K" glyph-name="K" horiz-adv-x="752" d="M419 400L692 0H517L319 290L204 163V0H60V700H204V377L497 700H692L419 400Z" />
<glyph unicode="L" glyph-name="L" horiz-adv-x="701" d="M204 144H641V0H60V700H204V144Z" />
<glyph unicode="M" glyph-name="M" horiz-adv-x="979" d="M919 0H775V383L529 0H450L204 383V0H60V700H171L489 205L808 700H919V0Z" />
<glyph unicode="N" glyph-name="N" horiz-adv-x="761" d="M701 0H596L204 439V0H60V700H164L557 261V700H701V0Z" />
<glyph unicode="O" glyph-name="O" horiz-adv-x="820" d="M330 700T410 700T553 678Q621 653 667 607T738 493Q760 430 760 350T738 207Q713 139 667 93T553 22Q485 0 410 0T267 22Q199 47 153 93T82 207Q60 275 60 350T82 493Q107 561 153 607T267 678Q330 700
410 700ZM616 556T410 556T204 350T410 144T616 350Z" />
<glyph unicode="P" glyph-name="P" horiz-adv-x="741" d="M60 700H430Q546 700 613 633T681 449T614 266T430 199H204V0H60V700ZM204 556V343H430Q487 343 511 368Q537 394 537 449Q537 505 511 531Q487 556 430 556H204Z" />
<glyph unicode="Q" glyph-name="Q" horiz-adv-x="820" d="M330 700T410 700T553 678Q621 653 667 607T738 493Q760 431 760 350Q760 270 738 208Q715 142 667 93Q620 46 553 23Q520 11 482 5V-119H338V5Q300 11 267 23Q200 46 153 93Q105 142 82 208Q60 274 60
350Q60 427 82 493Q107 561 153 607T267 678Q330 700 410 700ZM616 556T410 556T204 350T410 144T616 350Z" />
<glyph unicode="R" glyph-name="R" horiz-adv-x="741" d="M60 700H430Q546 700 613 633T681 449Q681 362 642 301T530 215L681 0H505L366 199H204V0H60V700ZM204 556V343H430Q487 343 511 368Q537 394 537 449Q537 505 511 531Q487 556 430 556H204Z" />
<glyph unicode="S" glyph-name="S" horiz-adv-x="780" d="M390 700Q518 700 599 655Q692 606 715 504L574 474Q567 508 530 529Q482 556 390 556Q285 556 233 529Q204 513 204 489T233 449Q285 422 390 422Q534 422 616 377Q720 321 720 211T616 45Q534 0 390
0Q262 0 181 45Q88 96 66 196L206 226Q215 191 251 171Q299 144 390 144Q495 144 547 171Q576 187 576 211T547 251Q495 278 390 278Q248 278 165 323Q60 379 60 489T165 655Q248 700 390 700Z" />
<glyph unicode="T" glyph-name="T" horiz-adv-x="721" d="M661 556H432V0H288V556H60V700H661V556Z" />
<glyph unicode="U" glyph-name="U" horiz-adv-x="740" d="M680 700V310Q680 239 661 185Q641 127 598 83Q557 42 496 20Q438 0 370 0T244 20Q185 41 143 83T80 185Q60 238 60 310V700H204V310Q204 225 244 185Q285 144 370 144T496 185Q536 225 536 310V700H680Z" />
<glyph unicode="V" glyph-name="V" horiz-adv-x="862" d="M477 0H385L60 700H219L431 243L643 700H802L477 0Z" />
<glyph unicode="W" glyph-name="W" horiz-adv-x="1292" d="M932 0H837L646 445L455 0H360L60 700H217L407 255L598 700H693L884 255L1075 700H1232L932 0Z" />
<glyph unicode="X" glyph-name="X" horiz-adv-x="797" d="M487 350L737 0H560L398 226L237 0H60L310 350L60 700H237L398 474L560 700H737L487 350Z" />
<glyph unicode="Y" glyph-name="Y" horiz-adv-x="800" d="M472 212V0H328V212L60 700H224L400 380L576 700H740L472 212Z" />
<glyph unicode="Z" glyph-name="Z" horiz-adv-x="736" d="M676 531L247 144H676V0H60V169L489 556H60V700H676V531Z" />
<glyph unicode="[" glyph-name="bracketleft" horiz-adv-x="343" d="M283 675H204V25H283V-119H60V819H283V675Z" />
<glyph unicode="\" glyph-name="backslash" horiz-adv-x="538" d="M478 -96L340 -137L60 795L198 837L478 -96Z" />
<glyph unicode="]" glyph-name="bracketright" horiz-adv-x="343" d="M283 819V-119H60V25H139V675H60V819H283Z" />
<glyph unicode="^" glyph-name="asciicircum" horiz-adv-x="798" d="M738 247L623 161L399 460L175 161L60 247L399 700L738 247Z" />
<glyph unicode="_" glyph-name="underscore" horiz-adv-x="661" d="M601 -144H60V0H601V-144Z" />
<glyph unicode="`" glyph-name="grave" horiz-adv-x="243" d="M243 757L226 730L0 866L17 893L243 757Z" />
<glyph unicode="a" glyph-name="a" horiz-adv-x="862" d="M802 0H643L606 79H256L219 0H60L385 700H477L802 0ZM405 668L110 32H199L236 111H626L663 32H752L457 668H405ZM589 191H272L431 533L589 191ZM322 223H539L431 457L322 223Z" />
<glyph unicode="b" glyph-name="b" horiz-adv-x="780" d="M60 700H509Q606 700 663 643T720 489Q720 405 677 350Q720 295 720 211Q720 114 663 57T509 0H60V700ZM92 668V32H509Q594 32 640 80Q688 126 688 211Q688 285 652 330L636 350L652 370Q688 415 688 489Q688
574 640 620Q594 668 509 668H92ZM172 588H509Q559 588 583 564Q608 541 608 489Q608 435 583 414Q559 390 509 390H172V588ZM204 556V422H509Q546 422 561 437Q576 451 576 489T561 541Q546 556 509 556H204ZM172 310H509Q559 310 583 286Q608 263 608 211Q608
157 583 136Q559 112 509 112H172V310ZM204 278V144H509Q546 144 561 159Q576 173 576 211T561 263Q546 278 509 278H204Z" />
<glyph unicode="c" glyph-name="c" horiz-adv-x="805" d="M410 700Q536 700 625 642Q669 611 700 567Q730 524 745 468L606 430Q590 493 544 522Q495 556 410 556Q204 556 204 350T410 144Q495 144 544 178Q590 207 606 270L745 232Q730 176 700 133Q669 89 625
58Q536 0 410 0Q335 0 267 22Q199 47 153 93T82 207Q60 275 60 350T82 493Q107 561 153 607T267 678Q330 700 410 700ZM410 668Q336 668 278 648Q216 625 176 584Q135 545 112 483Q92 418 92 350T112 217Q135 155 176 116Q215 75 277 52Q342 32 410 32Q527 32 607
85Q646 110 674 151Q692 177 704 210L627 231Q606 180 562 151Q532 132 493 121Q457 112 410 112Q354 112 309 126Q265 141 232 172Q201 205 186 249Q172 294 172 350T186 451Q201 495 232 528Q265 559 309 574Q354 588 410 588Q457 588 493 579Q532 568 562 549Q606
520 627 469L704 490Q692 523 674 549Q646 590 607 615Q527 668 410 668Z" />
<glyph unicode="d" glyph-name="d" horiz-adv-x="780" d="M60 700H370Q451 700 513 678Q580 654 627 607Q673 561 698 493Q720 430 720 350T698 207Q673 139 627 93Q580 46 513 22Q447 0 370 0H60V700ZM92 668V32H370Q440 32 503 52Q561 73 604 116Q645 156 668
218Q688 276 688 350T668 482Q645 544 604 584Q560 628 502 648Q445 668 370 668H92ZM172 588H370Q426 588 471 574Q515 559 548 528Q579 495 594 451Q608 406 608 350T594 249Q579 205 548 172Q515 141 471 126Q426 112 370 112H172V588ZM204 556V144H370Q576
144 576 350T370 556H204Z" />
<glyph unicode="e" glyph-name="e" horiz-adv-x="701" d="M641 556H204V422H641V278H204V144H641V0H60V700H641V556ZM92 668V32H609V112H172V310H609V390H172V588H609V668H92Z" />
<glyph unicode="f" glyph-name="f" horiz-adv-x="701" d="M641 556H204V422H601V278H204V0H60V700H641V556ZM92 668V32H172V310H569V390H172V588H609V668H92Z" />
<glyph unicode="g" glyph-name="g" horiz-adv-x="820" d="M410 700Q512 700 590 662Q670 623 714 544L589 474Q567 512 526 533Q478 556 410 556Q204 556 204 350T410 144Q578 144 609 278H370V422H760V350Q760 270 738 207Q713 139 667 93T553 22Q485 0 410 0T267
22Q199 47 153 93T82 207Q60 275 60 350T82 493Q107 561 153 607T267 678Q330 700 410 700ZM410 668Q336 668 278 648Q216 625 176 584Q135 545 112 483Q92 418 92 350T112 217Q135 155 176 116Q215 75 277 52Q342 32 410 32T543 52Q605 75 644 116Q685 156 708
218Q728 276 728 350V390H402V310H649L640 271Q622 191 561 151Q533 132 493 121Q456 112 410 112Q354 112 309 126Q265 141 232 172Q201 205 186 249Q172 294 172 350T186 451Q201 495 232 528Q265 559 309 574Q354 588 410 588Q485 588 540 562Q574 544 599 516L669
555Q634 605 576 633Q504 668 410 668Z" />
<glyph unicode="h" glyph-name="h" horiz-adv-x="741" d="M681 0H537V278H204V0H60V700H204V422H537V700H681V0ZM569 668V390H172V668H92V32H172V310H569V32H649V668H569Z" />
<glyph unicode="i" glyph-name="i" horiz-adv-x="264" d="M204 0H60V700H204V0ZM92 668V32H172V668H92Z" />
<glyph unicode="j" glyph-name="j" horiz-adv-x="463" d="M403 700V271Q403 210 385 162Q366 108 330 73Q294 36 241 17Q190 0 132 0H60V144H132Q198 144 228 174Q259 207 259 271V700H403ZM291 668V271Q291 192 251 151Q228 130 199 121T132 112H92V32H132Q184
32 231 47Q278 64 307 95L308 96Q339 127 355 172V173Q371 214 371 271V668H291Z" />
<glyph unicode="k" glyph-name="k" horiz-adv-x="752" d="M419 400L692 0H517L319 290L204 163V0H60V700H204V377L497 700H692L419 400ZM511 668L172 294V668H92V32H172V175L323 342L534 32H631L378 403L620 668H511Z" />
<glyph unicode="l" glyph-name="l" horiz-adv-x="701" d="M204 144H641V0H60V700H204V144ZM92 668V32H609V112H172V668H92Z" />
<glyph unicode="m" glyph-name="m" horiz-adv-x="979" d="M919 0H775V383L529 0H450L204 383V0H60V700H171L489 205L808 700H919V0ZM825 668L489 146L154 668H92V32H172V492L467 32H512L807 492V32H887V668H825Z" />
<glyph unicode="n" glyph-name="n" horiz-adv-x="761" d="M701 0H596L204 439V0H60V700H164L557 261V700H701V0ZM589 668V177L150 668H92V32H172V523L610 32H669V668H589Z" />
<glyph unicode="o" glyph-name="o" horiz-adv-x="820" d="M330 700T410 700T553 678Q621 653 667 607T738 493Q760 430 760 350T738 207Q713 139 667 93T553 22Q485 0 410 0T267 22Q199 47 153 93T82 207Q60 275 60 350T82 493Q107 561 153 607T267 678Q330 700
410 700ZM484 668T410 668T278 648Q216 625 176 584Q135 545 112 483Q92 418 92 350T112 217Q135 155 176 116Q215 75 277 52Q342 32 410 32T543 52Q605 75 644 116Q685 156 708 218Q728 276 728 350T708 482Q685 544 644 584Q604 625 542 648Q484 668 410 668ZM354
588T410 588T511 574Q555 559 588 528Q619 495 634 451Q648 406 648 350T634 249Q619 205 588 172Q555 141 511 126Q466 112 410 112T309 126Q265 141 232 172Q201 205 186 249Q172 294 172 350T186 451Q201 495 232 528Q265 559 309 574Q354 588 410 588ZM616
556T410 556T204 350T410 144T616 350Z" />
<glyph unicode="p" glyph-name="p" horiz-adv-x="741" d="M60 700H430Q546 700 613 633T681 449T614 266T430 199H204V0H60V700ZM92 668V32H172V231H430Q533 231 591 288T649 449Q649 502 634 542T591 610T523 653Q482 668 430 668H92ZM172 588H430Q501 588 534
553Q569 518 569 449Q569 381 534 346Q501 311 430 311H172V588ZM204 556V343H430Q487 343 511 368Q537 394 537 449Q537 505 511 531Q487 556 430 556H204Z" />
<glyph unicode="q" glyph-name="q" horiz-adv-x="820" d="M330 700T410 700T553 678Q621 653 667 607T738 493Q760 431 760 350Q760 270 738 208Q715 142 667 93Q620 46 553 23Q520 11 482 5V-119H338V5Q300 11 267 23Q200 46 153 93Q105 142 82 208Q60 274 60
350Q60 427 82 493Q107 561 153 607T267 678Q330 700 410 700ZM484 668T410 668T278 648Q216 625 176 584Q135 544 112 482Q92 420 92 350Q92 281 112 218Q133 159 176 115Q216 75 277 53H278Q312 41 343 37L370 32V-87H450V32L477 37Q508 41 542 53H543Q604 75
644 115Q687 160 708 219Q728 276 728 350Q728 425 708 482Q685 544 644 584Q604 625 542 648Q484 668 410 668ZM354 588T410 588T511 574Q555 559 588 528Q619 495 634 451Q648 406 648 350T634 250Q619 204 588 173Q556 141 511 126Q466 112 410 112T309 126Q264
141 232 173Q201 204 186 250Q172 294 172 350T186 451Q201 495 232 528Q265 559 309 574Q354 588 410 588ZM616 556T410 556T204 350T410 144T616 350Z" />
<glyph unicode="r" glyph-name="r" horiz-adv-x="741" d="M60 700H430Q546 700 613 633T681 449Q681 362 642 301T530 215L681 0H505L366 199H204V0H60V700ZM92 668V32H172V231H383L522 32H619L479 231L519 245Q580 266 614 318Q631 344 640 376Q649 409 649 449Q649
502 634 542T591 610T523 653Q482 668 430 668H92ZM172 588H430Q501 588 534 553Q569 518 569 449Q569 381 534 346Q501 311 430 311H172V588ZM204 556V343H430Q487 343 511 368Q537 394 537 449Q537 505 511 531Q487 556 430 556H204Z" />
<glyph unicode="s" glyph-name="s" horiz-adv-x="780" d="M390 700Q518 700 599 655Q692 606 715 504L574 474Q567 508 530 529Q482 556 390 556Q285 556 233 529Q204 513 204 489T233 449Q285 422 390 422Q534 422 616 377Q720 321 720 211T616 45Q534 0 390
0Q262 0 181 45Q88 96 66 196L206 226Q215 191 251 171Q299 144 390 144Q495 144 547 171Q576 187 576 211T547 251Q495 278 390 278Q248 278 165 323Q60 379 60 489T165 655Q248 700 390 700ZM390 668Q256 668 180 627Q136 602 114 568T92 489T114 410T180 351Q256
310 390 310Q455 310 499 300Q536 292 562 279H563Q608 254 608 211T563 143Q505 112 390 112Q290 112 235 143Q209 157 197 174Q189 184 187 189L107 172Q131 108 196 73Q236 51 281 43Q333 32 390 32Q525 32 601 73Q643 96 666 132Q688 166 688 211T666 290Q643
326 601 349Q525 390 390 390Q325 390 281 400Q244 408 218 421H217Q172 446 172 489T217 557H218Q276 588 390 588Q441 588 476 581Q518 572 546 557Q578 539 594 511L674 528Q666 550 649 572Q623 605 583 627Q510 668 390 668Z" />
<glyph unicode="t" glyph-name="t" horiz-adv-x="721" d="M661 556H432V0H288V556H60V700H661V556ZM92 668V588H320V32H400V588H629V668H92Z" />
<glyph unicode="u" glyph-name="u" horiz-adv-x="740" d="M680 700V310Q680 239 661 185Q641 127 598 83Q557 42 496 20Q438 0 370 0T244 20Q185 41 143 83T80 185Q60 238 60 310V700H204V310Q204 225 244 185Q285 144 370 144T496 185Q536 225 536 310V700H680ZM568
668V310Q568 265 557 227Q543 186 519 162Q493 136 454 124Q416 112 370 112T286 124Q247 136 221 162Q197 186 183 227Q172 265 172 310V668H92V310Q92 244 110 196Q130 141 166 106Q200 70 255 50Q308 32 370 32T485 50Q537 69 575 105Q614 147 631 196T648 310V668H568Z"
/>
<glyph unicode="v" glyph-name="v" horiz-adv-x="862" d="M477 0H385L60 700H219L431 243L643 700H802L477 0ZM663 668L431 167L199 668H110L405 32H457L752 668H663Z" />
<glyph unicode="w" glyph-name="w" horiz-adv-x="1292" d="M932 0H837L646 445L455 0H360L60 700H217L407 255L598 700H693L884 255L1075 700H1232L932 0ZM1096 668L884 174L672 668H619L407 174L196 668H109L381 32H434L646 526L858 32H911L1183 668H1096Z" />
<glyph unicode="x" glyph-name="x" horiz-adv-x="797" d="M487 350L737 0H560L398 226L237 0H60L310 350L60 700H237L398 474L560 700H737L487 350ZM576 668L398 419L221 668H122L349 350L122 32H221L398 281L576 32H675L448 350L675 668H576Z" />
<glyph unicode="y" glyph-name="y" horiz-adv-x="800" d="M472 212V0H328V212L60 700H224L400 380L576 700H740L472 212ZM595 668L400 314L205 668H114L360 220V32H440V220L686 668H595Z" />
<glyph unicode="z" glyph-name="z" horiz-adv-x="736" d="M676 531L247 144H676V0H60V169L489 556H60V700H676V531ZM92 668V588H572L92 155V32H644V112H164L644 545V668H92Z" />
<glyph unicode="{" glyph-name="braceleft" horiz-adv-x="458" d="M398 752L350 699Q303 647 303 549V449Q303 393 277 350Q303 307 303 251V151Q303 53 350 1L398 -52L291 -149L243 -96Q203 -51 179 15Q159 78 159 151V251Q159 269 155 273Q150 278 132 278H60V422H132Q150
422 155 427Q159 431 159 449V549Q159 622 179 685Q203 751 243 796L291 849L398 752Z" />
<glyph unicode="|" glyph-name="bar" horiz-adv-x="264" d="M204 -119H60V819H204V-119Z" />
<glyph unicode="}" glyph-name="braceright" horiz-adv-x="458" d="M167 849L215 796Q255 751 279 685Q299 622 299 549V449Q299 431 303 427Q308 422 326 422H398V278H326Q308 278 303 273Q299 269 299 251V151Q299 78 279 15Q255 -51 215 -96L167 -149L60 -52L108
1Q155 53 155 151V251Q155 307 181 350Q155 393 155 449V549Q155 647 108 699L60 752L167 849Z" />
<glyph unicode="~" glyph-name="asciitilde" horiz-adv-x="701" d="M193 487Q259 501 316 476Q381 449 415 383Q433 346 475 354Q487 357 492 364Q497 372 497 378V450H641V378Q641 314 600 268Q565 228 508 214Q439 200 385 225Q320 252 286 318Q268 355 226
347Q216 344 209 337Q204 332 204 323V251H60V323Q60 387 101 433Q138 473 193 487Z" />
</font>
</defs>
</svg>
